<svg xmlns="http://www.w3.org/2000/svg" width="32" height="32" viewBox="0 0 903 767">
<path fill="#FAE6B9" fill-rule="evenodd" d="M 41.00,4.00 L 40.00,7.00 L 43.00,9.00 L 53.00,8.00 L 54.00,9.00 L 68.00,10.00 L 82.00,15.00 L 88.00,19.00 L 97.00,29.00 L 102.00,43.00 L 103.00,57.00 L 104.00,58.00 L 104.00,68.00 L 103.00,69.00 L 104.00,70.00 L 104.00,76.00 L 103.00,77.00 L 104.00,79.00 L 104.00,111.00 L 103.00,112.00 L 102.00,125.00 L 93.00,147.00 L 85.00,160.00 L 82.00,162.00 L 82.00,165.00 L 76.00,175.00 L 72.00,191.00 L 71.00,213.00 L 72.00,214.00 L 73.00,226.00 L 75.00,229.00 L 75.00,234.00 L 77.00,236.00 L 76.00,238.00 L 77.00,241.00 L 76.00,242.00 L 73.00,240.00 L 69.00,231.00 L 59.00,216.00 L 24.00,181.00 L 22.00,176.00 L 17.00,172.00 L 9.00,158.00 L 6.00,166.00 L 5.00,180.00 L 4.00,181.00 L 4.00,193.00 L 5.00,194.00 L 6.00,206.00 L 10.00,220.00 L 14.00,227.00 L 14.00,229.00 L 23.00,243.00 L 42.00,262.00 L 44.00,262.00 L 53.00,268.00 L 55.00,268.00 L 56.00,270.00 L 59.00,270.00 L 64.00,274.00 L 79.00,280.00 L 93.00,293.00 L 103.00,311.00 L 107.00,322.00 L 109.00,323.00 L 112.00,332.00 L 118.00,342.00 L 118.00,345.00 L 125.00,355.00 L 125.00,358.00 L 123.00,359.00 L 122.00,356.00 L 116.00,351.00 L 112.00,344.00 L 96.00,332.00 L 95.00,330.00 L 93.00,330.00 L 92.00,328.00 L 88.00,327.00 L 87.00,325.00 L 82.00,324.00 L 73.00,319.00 L 72.00,317.00 L 69.00,317.00 L 68.00,315.00 L 56.00,310.00 L 52.00,306.00 L 46.00,304.00 L 45.00,302.00 L 39.00,299.00 L 33.00,294.00 L 21.00,281.00 L 21.00,291.00 L 20.00,292.00 L 22.00,294.00 L 26.00,314.00 L 33.00,329.00 L 33.00,332.00 L 36.00,334.00 L 37.00,337.00 L 45.00,347.00 L 45.00,349.00 L 49.00,353.00 L 51.00,353.00 L 55.00,358.00 L 57.00,358.00 L 59.00,361.00 L 61.00,361.00 L 62.00,363.00 L 65.00,363.00 L 67.00,365.00 L 77.00,369.00 L 78.00,371.00 L 94.00,376.00 L 99.00,376.00 L 115.00,380.00 L 126.00,384.00 L 142.00,393.00 L 148.00,399.00 L 149.00,402.00 L 158.00,413.00 L 168.00,434.00 L 171.00,445.00 L 173.00,448.00 L 173.00,451.00 L 175.00,454.00 L 178.00,473.00 L 180.00,474.00 L 179.00,478.00 L 180.00,476.00 L 179.00,451.00 L 180.00,450.00 L 178.00,449.00 L 179.00,447.00 L 179.00,421.00 L 178.00,420.00 L 179.00,416.00 L 178.00,414.00 L 179.00,410.00 L 179.00,404.00 L 178.00,403.00 L 179.00,400.00 L 178.00,399.00 L 179.00,365.00 L 178.00,362.00 L 180.00,354.00 L 180.00,349.00 L 179.00,348.00 L 180.00,317.00 L 181.00,316.00 L 214.00,316.00 L 217.00,318.00 L 227.00,317.00 L 228.00,318.00 L 233.00,318.00 L 234.00,320.00 L 237.00,319.00 L 238.00,321.00 L 239.00,320.00 L 244.00,321.00 L 247.00,324.00 L 259.00,329.00 L 276.00,345.00 L 290.00,365.00 L 309.00,398.00 L 311.00,404.00 L 313.00,405.00 L 336.00,446.00 L 340.00,451.00 L 351.00,471.00 L 367.00,494.00 L 368.00,498.00 L 372.00,501.00 L 385.00,522.00 L 394.00,531.00 L 394.00,533.00 L 397.00,534.00 L 407.00,545.00 L 407.00,547.00 L 413.00,553.00 L 415.00,553.00 L 424.00,561.00 L 429.00,567.00 L 431.00,567.00 L 433.00,570.00 L 446.00,579.00 L 476.00,595.00 L 478.00,594.00 L 481.00,597.00 L 483.00,596.00 L 486.00,599.00 L 498.00,603.00 L 500.00,602.00 L 501.00,604.00 L 521.00,609.00 L 525.00,608.00 L 526.00,610.00 L 540.00,611.00 L 541.00,612.00 L 547.00,611.00 L 554.00,613.00 L 574.00,613.00 L 575.00,611.00 L 582.00,611.00 L 583.00,612.00 L 607.00,611.00 L 608.00,610.00 L 617.00,610.00 L 624.00,608.00 L 636.00,608.00 L 645.00,610.00 L 656.00,615.00 L 677.00,621.00 L 699.00,621.00 L 716.00,617.00 L 719.00,615.00 L 724.00,614.00 L 729.00,610.00 L 732.00,610.00 L 736.00,608.00 L 737.00,606.00 L 747.00,601.00 L 752.00,597.00 L 761.00,594.00 L 765.00,590.00 L 757.00,587.00 L 756.00,585.00 L 753.00,585.00 L 749.00,582.00 L 736.00,578.00 L 725.00,577.00 L 724.00,576.00 L 705.00,576.00 L 687.00,580.00 L 683.00,583.00 L 675.00,585.00 L 665.00,592.00 L 660.00,593.00 L 656.00,597.00 L 652.00,599.00 L 650.00,598.00 L 647.00,600.00 L 642.00,601.00 L 641.00,603.00 L 638.00,602.00 L 631.00,604.00 L 621.00,604.00 L 620.00,601.00 L 621.00,600.00 L 623.00,601.00 L 626.00,598.00 L 628.00,599.00 L 629.00,597.00 L 631.00,598.00 L 634.00,595.00 L 636.00,596.00 L 650.00,589.00 L 654.00,585.00 L 665.00,580.00 L 667.00,577.00 L 669.00,577.00 L 673.00,574.00 L 676.00,570.00 L 678.00,570.00 L 680.00,567.00 L 682.00,567.00 L 686.00,562.00 L 691.00,561.00 L 695.00,559.00 L 696.00,557.00 L 700.00,557.00 L 710.00,553.00 L 715.00,554.00 L 716.00,553.00 L 742.00,553.00 L 743.00,552.00 L 748.00,553.00 L 750.00,551.00 L 754.00,552.00 L 756.00,550.00 L 759.00,551.00 L 760.00,549.00 L 762.00,550.00 L 764.00,548.00 L 766.00,549.00 L 775.00,545.00 L 776.00,543.00 L 778.00,544.00 L 780.00,541.00 L 782.00,541.00 L 789.00,536.00 L 793.00,535.00 L 796.00,531.00 L 798.00,531.00 L 804.00,524.00 L 812.00,517.00 L 814.00,517.00 L 819.00,512.00 L 819.00,510.00 L 832.00,498.00 L 837.00,495.00 L 831.00,493.00 L 821.00,493.00 L 820.00,492.00 L 795.00,492.00 L 794.00,493.00 L 785.00,493.00 L 761.00,499.00 L 749.00,505.00 L 729.00,522.00 L 722.00,533.00 L 710.00,545.00 L 699.00,552.00 L 697.00,551.00 L 702.00,542.00 L 709.00,535.00 L 715.00,521.00 L 718.00,518.00 L 718.00,516.00 L 720.00,514.00 L 720.00,512.00 L 732.00,490.00 L 738.00,484.00 L 738.00,482.00 L 771.00,448.00 L 774.00,441.00 L 777.00,439.00 L 779.00,432.00 L 781.00,431.00 L 781.00,428.00 L 784.00,422.00 L 788.00,408.00 L 789.00,394.00 L 790.00,393.00 L 790.00,377.00 L 789.00,376.00 L 789.00,370.00 L 786.00,355.00 L 781.00,340.00 L 779.00,340.00 L 770.00,361.00 L 768.00,362.00 L 767.00,367.00 L 760.00,380.00 L 753.00,390.00 L 748.00,394.00 L 746.00,399.00 L 735.00,411.00 L 723.00,431.00 L 716.00,457.00 L 717.00,458.00 L 717.00,471.00 L 716.00,473.00 L 718.00,478.00 L 718.00,497.00 L 716.00,503.00 L 712.00,510.00 L 712.00,512.00 L 709.00,517.00 L 707.00,518.00 L 707.00,521.00 L 704.00,523.00 L 703.00,528.00 L 701.00,531.00 L 698.00,533.00 L 698.00,535.00 L 696.00,536.00 L 694.00,541.00 L 680.00,555.00 L 680.00,557.00 L 677.00,560.00 L 675.00,560.00 L 670.00,566.00 L 668.00,566.00 L 666.00,569.00 L 664.00,569.00 L 658.00,575.00 L 656.00,575.00 L 644.00,582.00 L 641.00,581.00 L 650.00,572.00 L 663.00,562.00 L 673.00,550.00 L 675.00,550.00 L 677.00,548.00 L 677.00,546.00 L 680.00,544.00 L 680.00,541.00 L 685.00,536.00 L 692.00,520.00 L 696.00,499.00 L 696.00,486.00 L 694.00,481.00 L 695.00,478.00 L 694.00,470.00 L 687.00,449.00 L 685.00,450.00 L 673.00,470.00 L 669.00,473.00 L 669.00,476.00 L 662.00,485.00 L 656.00,497.00 L 654.00,498.00 L 653.00,504.00 L 651.00,505.00 L 652.00,507.00 L 650.00,508.00 L 648.00,515.00 L 649.00,518.00 L 647.00,519.00 L 648.00,523.00 L 646.00,524.00 L 647.00,525.00 L 645.00,531.00 L 646.00,540.00 L 644.00,542.00 L 645.00,549.00 L 643.00,550.00 L 644.00,556.00 L 642.00,557.00 L 643.00,559.00 L 641.00,562.00 L 642.00,564.00 L 641.00,567.00 L 638.00,570.00 L 636.00,576.00 L 630.00,582.00 L 629.00,585.00 L 627.00,585.00 L 617.00,593.00 L 615.00,592.00 L 614.00,594.00 L 607.00,596.00 L 604.00,595.00 L 603.00,597.00 L 575.00,598.00 L 573.00,596.00 L 572.00,597.00 L 567.00,597.00 L 545.00,591.00 L 542.00,588.00 L 540.00,589.00 L 537.00,586.00 L 535.00,587.00 L 534.00,585.00 L 527.00,583.00 L 522.00,579.00 L 519.00,579.00 L 517.00,576.00 L 513.00,575.00 L 512.00,573.00 L 507.00,571.00 L 502.00,566.00 L 500.00,566.00 L 489.00,557.00 L 489.00,555.00 L 487.00,555.00 L 465.00,531.00 L 463.00,526.00 L 461.00,525.00 L 461.00,523.00 L 458.00,521.00 L 458.00,519.00 L 456.00,518.00 L 456.00,516.00 L 452.00,512.00 L 452.00,510.00 L 448.00,503.00 L 441.00,496.00 L 442.00,494.00 L 440.00,493.00 L 439.00,489.00 L 434.00,484.00 L 433.00,479.00 L 430.00,477.00 L 430.00,474.00 L 427.00,472.00 L 425.00,467.00 L 419.00,458.00 L 419.00,455.00 L 417.00,454.00 L 416.00,450.00 L 414.00,449.00 L 410.00,442.00 L 409.00,437.00 L 404.00,432.00 L 403.00,427.00 L 401.00,426.00 L 401.00,424.00 L 399.00,423.00 L 393.00,413.00 L 393.00,410.00 L 386.00,398.00 L 383.00,396.00 L 368.00,372.00 L 351.00,351.00 L 351.00,349.00 L 333.00,333.00 L 318.00,323.00 L 317.00,321.00 L 314.00,321.00 L 309.00,317.00 L 298.00,312.00 L 300.00,309.00 L 309.00,309.00 L 314.00,307.00 L 317.00,308.00 L 319.00,306.00 L 324.00,307.00 L 325.00,305.00 L 330.00,306.00 L 338.00,304.00 L 340.00,302.00 L 342.00,303.00 L 351.00,299.00 L 359.00,298.00 L 361.00,296.00 L 369.00,294.00 L 372.00,292.00 L 374.00,293.00 L 375.00,291.00 L 384.00,287.00 L 388.00,287.00 L 389.00,285.00 L 400.00,280.00 L 402.00,278.00 L 407.00,277.00 L 409.00,274.00 L 422.00,266.00 L 431.00,258.00 L 435.00,257.00 L 438.00,252.00 L 447.00,243.00 L 449.00,243.00 L 449.00,241.00 L 454.00,237.00 L 455.00,233.00 L 458.00,230.00 L 465.00,218.00 L 467.00,217.00 L 467.00,215.00 L 469.00,214.00 L 472.00,208.00 L 471.00,206.00 L 473.00,205.00 L 472.00,203.00 L 474.00,199.00 L 476.00,198.00 L 475.00,196.00 L 476.00,193.00 L 478.00,192.00 L 477.00,190.00 L 479.00,189.00 L 478.00,186.00 L 480.00,185.00 L 479.00,182.00 L 481.00,172.00 L 483.00,171.00 L 482.00,165.00 L 484.00,164.00 L 483.00,160.00 L 483.00,140.00 L 484.00,136.00 L 482.00,134.00 L 480.00,118.00 L 473.00,96.00 L 468.00,85.00 L 466.00,83.00 L 466.00,81.00 L 455.00,65.00 L 432.00,42.00 L 409.00,27.00 L 401.00,24.00 L 395.00,20.00 L 392.00,20.00 L 391.00,18.00 L 387.00,18.00 L 373.00,13.00 L 355.00,9.00 L 332.00,7.00 L 331.00,6.00 L 321.00,6.00 L 320.00,5.00 Z M 194.00,16.00 L 209.00,16.00 L 210.00,15.00 L 212.00,16.00 L 213.00,15.00 L 275.00,15.00 L 276.00,16.00 L 298.00,17.00 L 315.00,22.00 L 319.00,22.00 L 322.00,24.00 L 330.00,26.00 L 344.00,34.00 L 346.00,34.00 L 356.00,41.00 L 371.00,55.00 L 382.00,70.00 L 386.00,80.00 L 388.00,82.00 L 392.00,94.00 L 394.00,96.00 L 394.00,100.00 L 397.00,105.00 L 396.00,107.00 L 398.00,109.00 L 397.00,111.00 L 399.00,113.00 L 398.00,116.00 L 400.00,117.00 L 399.00,121.00 L 401.00,122.00 L 400.00,128.00 L 402.00,129.00 L 401.00,137.00 L 403.00,140.00 L 403.00,146.00 L 402.00,147.00 L 402.00,161.00 L 403.00,163.00 L 401.00,168.00 L 401.00,176.00 L 400.00,177.00 L 401.00,181.00 L 399.00,183.00 L 400.00,187.00 L 398.00,188.00 L 399.00,191.00 L 397.00,193.00 L 396.00,197.00 L 397.00,199.00 L 395.00,200.00 L 395.00,204.00 L 389.00,217.00 L 389.00,220.00 L 382.00,231.00 L 378.00,240.00 L 374.00,244.00 L 374.00,246.00 L 368.00,254.00 L 352.00,270.00 L 333.00,284.00 L 302.00,297.00 L 277.00,302.00 L 254.00,303.00 L 253.00,304.00 L 181.00,304.00 L 180.00,303.00 L 179.00,298.00 L 179.00,265.00 L 178.00,264.00 L 179.00,262.00 L 178.00,260.00 L 179.00,258.00 L 179.00,221.00 L 178.00,220.00 L 178.00,207.00 L 179.00,206.00 L 179.00,199.00 L 178.00,198.00 L 179.00,193.00 L 179.00,137.00 L 178.00,135.00 L 179.00,134.00 L 179.00,125.00 L 178.00,123.00 L 179.00,122.00 L 179.00,70.00 L 180.00,69.00 L 179.00,42.00 L 180.00,41.00 L 180.00,36.00 L 182.00,35.00 L 181.00,32.00 L 185.00,23.00 L 190.00,18.00 Z M 868.00,252.00 L 865.00,250.00 L 858.00,258.00 L 849.00,263.00 L 830.00,264.00 L 818.00,260.00 L 802.00,251.00 L 800.00,251.00 L 777.00,240.00 L 745.00,229.00 L 719.00,223.00 L 713.00,223.00 L 698.00,220.00 L 689.00,220.00 L 688.00,219.00 L 676.00,219.00 L 675.00,218.00 L 634.00,219.00 L 633.00,220.00 L 609.00,222.00 L 579.00,229.00 L 553.00,238.00 L 512.00,258.00 L 490.00,273.00 L 470.00,289.00 L 446.00,313.00 L 446.00,315.00 L 442.00,318.00 L 442.00,320.00 L 437.00,324.00 L 437.00,326.00 L 430.00,333.00 L 430.00,335.00 L 428.00,336.00 L 422.00,345.00 L 422.00,347.00 L 420.00,348.00 L 413.00,359.00 L 409.00,369.00 L 407.00,370.00 L 394.00,399.00 L 436.00,472.00 L 440.00,476.00 L 442.00,482.00 L 444.00,483.00 L 445.00,487.00 L 447.00,488.00 L 450.00,495.00 L 452.00,496.00 L 455.00,503.00 L 458.00,506.00 L 457.00,483.00 L 456.00,482.00 L 456.00,471.00 L 458.00,462.00 L 457.00,461.00 L 458.00,459.00 L 457.00,455.00 L 459.00,448.00 L 458.00,443.00 L 460.00,438.00 L 459.00,433.00 L 461.00,430.00 L 461.00,425.00 L 463.00,418.00 L 462.00,414.00 L 464.00,413.00 L 463.00,410.00 L 465.00,409.00 L 464.00,406.00 L 466.00,405.00 L 467.00,401.00 L 466.00,397.00 L 468.00,391.00 L 470.00,390.00 L 469.00,389.00 L 471.00,387.00 L 470.00,383.00 L 472.00,382.00 L 471.00,380.00 L 473.00,375.00 L 475.00,374.00 L 474.00,372.00 L 477.00,369.00 L 476.00,367.00 L 478.00,366.00 L 478.00,362.00 L 481.00,355.00 L 484.00,352.00 L 484.00,349.00 L 490.00,337.00 L 499.00,325.00 L 499.00,323.00 L 501.00,322.00 L 501.00,320.00 L 503.00,319.00 L 504.00,315.00 L 511.00,308.00 L 511.00,306.00 L 514.00,304.00 L 514.00,302.00 L 522.00,292.00 L 536.00,278.00 L 547.00,269.00 L 551.00,268.00 L 554.00,264.00 L 575.00,251.00 L 592.00,243.00 L 610.00,237.00 L 633.00,232.00 L 653.00,231.00 L 654.00,230.00 L 681.00,231.00 L 713.00,237.00 L 716.00,239.00 L 719.00,239.00 L 735.00,245.00 L 750.00,252.00 L 776.00,269.00 L 792.00,282.00 L 805.00,295.00 L 815.00,307.00 L 815.00,309.00 L 825.00,319.00 L 825.00,322.00 L 827.00,323.00 L 827.00,325.00 L 831.00,329.00 L 832.00,333.00 L 837.00,338.00 L 837.00,341.00 L 840.00,344.00 L 841.00,348.00 L 843.00,349.00 L 845.00,353.00 L 844.00,355.00 L 850.00,364.00 L 849.00,366.00 L 852.00,369.00 L 858.00,386.00 L 861.00,388.00 L 863.00,386.00 L 863.00,269.00 L 864.00,268.00 L 865.00,258.00 Z M 377.00,525.00 L 378.00,539.00 L 379.00,540.00 L 380.00,553.00 L 382.00,558.00 L 383.00,567.00 L 388.00,582.00 L 388.00,585.00 L 392.00,592.00 L 392.00,595.00 L 395.00,600.00 L 396.00,605.00 L 406.00,625.00 L 416.00,641.00 L 416.00,644.00 L 420.00,647.00 L 424.00,654.00 L 438.00,671.00 L 462.00,695.00 L 474.00,705.00 L 511.00,729.00 L 534.00,740.00 L 536.00,740.00 L 537.00,742.00 L 539.00,741.00 L 562.00,750.00 L 584.00,755.00 L 585.00,757.00 L 589.00,756.00 L 590.00,758.00 L 591.00,757.00 L 600.00,758.00 L 601.00,760.00 L 602.00,759.00 L 607.00,759.00 L 608.00,760.00 L 625.00,761.00 L 626.00,762.00 L 669.00,762.00 L 670.00,761.00 L 679.00,761.00 L 695.00,758.00 L 700.00,759.00 L 701.00,757.00 L 705.00,757.00 L 710.00,755.00 L 715.00,756.00 L 716.00,754.00 L 729.00,751.00 L 753.00,742.00 L 755.00,743.00 L 756.00,741.00 L 771.00,735.00 L 786.00,727.00 L 805.00,715.00 L 822.00,702.00 L 852.00,673.00 L 869.00,651.00 L 884.00,627.00 L 895.00,603.00 L 898.00,593.00 L 896.00,590.00 L 894.00,590.00 L 892.00,592.00 L 875.00,625.00 L 865.00,640.00 L 848.00,661.00 L 827.00,682.00 L 814.00,693.00 L 785.00,713.00 L 774.00,719.00 L 772.00,719.00 L 770.00,721.00 L 762.00,723.00 L 751.00,728.00 L 725.00,736.00 L 706.00,739.00 L 704.00,741.00 L 697.00,740.00 L 696.00,742.00 L 687.00,741.00 L 681.00,743.00 L 662.00,743.00 L 654.00,741.00 L 639.00,740.00 L 611.00,734.00 L 588.00,726.00 L 575.00,720.00 L 568.00,715.00 L 560.00,712.00 L 556.00,708.00 L 554.00,708.00 L 547.00,703.00 L 534.00,690.00 L 532.00,690.00 L 522.00,680.00 L 522.00,678.00 L 520.00,676.00 L 517.00,675.00 L 514.00,671.00 L 514.00,669.00 L 508.00,664.00 L 502.00,656.00 L 493.00,639.00 L 490.00,637.00 L 490.00,635.00 L 485.00,627.00 L 485.00,624.00 L 482.00,621.00 L 483.00,619.00 L 480.00,613.00 L 478.00,612.00 L 479.00,610.00 L 476.00,607.00 L 477.00,605.00 L 476.00,603.00 L 474.00,603.00 L 473.00,601.00 L 471.00,601.00 L 462.00,596.00 L 459.00,596.00 L 455.00,592.00 L 450.00,591.00 L 448.00,588.00 L 446.00,588.00 L 445.00,586.00 L 441.00,585.00 L 440.00,583.00 L 438.00,583.00 L 437.00,581.00 L 435.00,581.00 L 434.00,579.00 L 429.00,577.00 L 425.00,572.00 L 423.00,572.00 L 420.00,568.00 L 418.00,568.00 L 411.00,560.00 L 409.00,560.00 L 408.00,557.00 L 404.00,553.00 L 402.00,553.00 L 398.00,549.00 L 398.00,547.00 L 395.00,546.00 L 391.00,541.00 L 391.00,539.00 L 388.00,538.00 L 380.00,528.00 L 379.00,525.00 Z M 103.00,387.00 L 103.00,411.00 L 104.00,412.00 L 103.00,414.00 L 104.00,490.00 L 103.00,491.00 L 104.00,492.00 L 104.00,510.00 L 103.00,511.00 L 103.00,525.00 L 99.00,543.00 L 92.00,556.00 L 81.00,566.00 L 78.00,566.00 L 75.00,569.00 L 67.00,572.00 L 57.00,574.00 L 36.00,575.00 L 35.00,577.00 L 37.00,579.00 L 254.00,579.00 L 256.00,576.00 L 251.00,573.00 L 235.00,573.00 L 232.00,571.00 L 228.00,572.00 L 220.00,570.00 L 215.00,567.00 L 213.00,568.00 L 212.00,566.00 L 206.00,565.00 L 204.00,562.00 L 201.00,562.00 L 192.00,554.00 L 190.00,549.00 L 188.00,548.00 L 184.00,541.00 L 184.00,537.00 L 182.00,536.00 L 182.00,533.00 L 179.00,526.00 L 175.00,489.00 L 169.00,463.00 L 163.00,448.00 L 163.00,444.00 L 161.00,443.00 L 160.00,438.00 L 158.00,437.00 L 158.00,435.00 L 156.00,433.00 L 151.00,421.00 L 148.00,419.00 L 148.00,417.00 L 134.00,402.00 L 132.00,402.00 L 119.00,392.00 L 116.00,392.00 L 112.00,389.00 Z M 121.00,100.00 L 123.00,101.00 L 122.00,104.00 L 124.00,106.00 L 125.00,138.00 L 126.00,139.00 L 125.00,323.00 L 126.00,326.00 L 129.00,304.00 L 132.00,302.00 L 134.00,308.00 L 137.00,311.00 L 139.00,318.00 L 141.00,320.00 L 153.00,354.00 L 153.00,358.00 L 159.00,379.00 L 160.00,389.00 L 162.00,395.00 L 162.00,400.00 L 161.00,401.00 L 159.00,401.00 L 157.00,399.00 L 156.00,394.00 L 154.00,393.00 L 151.00,388.00 L 146.00,376.00 L 143.00,373.00 L 137.00,360.00 L 135.00,358.00 L 135.00,356.00 L 133.00,354.00 L 124.00,336.00 L 124.00,334.00 L 104.00,296.00 L 102.00,290.00 L 97.00,283.00 L 95.00,276.00 L 91.00,269.00 L 89.00,252.00 L 87.00,250.00 L 88.00,248.00 L 88.00,243.00 L 87.00,242.00 L 87.00,225.00 L 88.00,224.00 L 87.00,222.00 L 88.00,221.00 L 88.00,212.00 L 91.00,201.00 L 91.00,193.00 L 94.00,184.00 L 97.00,180.00 L 97.00,177.00 L 99.00,175.00 L 101.00,166.00 L 103.00,165.00 L 104.00,158.00 L 113.00,137.00 L 116.00,126.00 L 117.00,115.00 L 119.00,113.00 L 118.00,112.00 L 120.00,107.00 L 119.00,103.00 Z M 663.00,603.00 L 667.00,602.00 L 668.00,604.00 L 664.00,605.00 Z M 616.00,602.00 L 618.00,601.00 L 620.00,604.00 L 617.00,605.00 Z M 694.00,599.00 L 697.00,598.00 L 698.00,600.00 L 695.00,601.00 Z M 291.00,310.00 L 294.00,309.00 L 295.00,311.00 L 292.00,312.00 Z M 749.00,531.00 L 751.00,530.00 L 752.00,532.00 L 750.00,533.00 Z M 728.00,473.00 L 730.00,472.00 L 731.00,474.00 L 729.00,475.00 Z M 723.00,543.00 L 725.00,542.00 L 726.00,544.00 L 724.00,545.00 Z M 707.00,596.00 L 709.00,595.00 L 710.00,597.00 L 708.00,598.00 Z M 70.00,341.00 L 72.00,340.00 L 73.00,342.00 L 71.00,343.00 Z M 699.00,598.00 L 701.00,597.00 L 702.00,599.00 L 700.00,600.00 Z M 675.00,602.00 L 677.00,601.00 L 678.00,603.00 L 676.00,604.00 Z M 674.00,503.00 L 676.00,502.00 L 677.00,504.00 L 675.00,505.00 Z M 67.00,339.00 L 69.00,338.00 L 70.00,340.00 L 68.00,341.00 Z M 668.00,525.00 L 670.00,524.00 L 671.00,526.00 L 669.00,527.00 Z M 667.00,528.00 L 669.00,527.00 L 670.00,529.00 L 668.00,530.00 Z M 661.00,543.00 L 663.00,542.00 L 664.00,544.00 L 662.00,545.00 Z M 64.00,337.00 L 66.00,336.00 L 67.00,338.00 L 65.00,339.00 Z M 64.00,253.00 L 66.00,252.00 L 67.00,254.00 L 65.00,255.00 Z M 31.00,217.00 L 33.00,216.00 L 34.00,218.00 L 32.00,219.00 Z M 162.00,407.00 L 164.00,406.00 L 165.00,408.00 L 163.00,409.00 Z"/>
</svg>